<svg xmlns="http://www.w3.org/2000/svg" viewBox="0 0 200 200" width="200" height="200">
  <!-- Main icon area -->
  <rect x="0" y="0" width="200" height="156" fill="#3d3d3d"/>

  <!-- Mail.ru icon from SimpleIcons -->
  <g transform="translate(34, 12) scale(5.5)">
    <path fill="#fd7200" d="m15.24 8.998 3.656-3.073v15.81H2.482C1.11 21.735 0 20.609 0 19.223V6.944l7.58 6.38a2.186 2.186 0 0 0 2.871-.042l4.792-4.284h-.003zm-5.456 3.538 1.809-1.616a2.438 2.438 0 0 1-1.178-.533L.905 2.395A.552.552 0 0 0 0 2.826v2.811l8.226 6.923a1.186 1.186 0 0 0 1.558-.024zM23.871 2.463a.551.551 0 0 0-.776-.068l-3.199 2.688v16.653h1.623c1.371 0 2.481-1.127 2.481-2.513V2.824a.551.551 0 0 0-.129-.36z"/>
  </g>

  <!-- Colored line separator -->
  <rect x="0" y="156" width="200" height="5" fill="#05eafa"/>

  <!-- Bottom dark bar -->
  <rect x="0" y="162" width="200" height="38" fill="#2D2D2D"/>

  <!-- Text label -->
  <text x="100" y="188" text-anchor="middle" fill="white" font-family="Arial, sans-serif" font-size="20" font-weight="bold" letter-spacing="2">EMAIL</text>
</svg>
