<svg xmlns="http://www.w3.org/2000/svg" viewBox="0 0 200 200" width="200" height="200">
  <g transform="translate(25, 25) scale(0.75)">
    <rect x="0" y="0" width="200" height="156" fill="#ff2b2b00"/>

    <g transform="translate(34, 32) scale(6)">
      <path fill="#ff2b2b" d="M19.325 0s-2.655-.334-8.357-.334c-5.517 0-8.294.334-8.294.334A2.675 2.675 0 0 0 0 2.675v10.034a2.675 2.675 0 0 0 2.674 2.676s2.582.332 8.294.332c5.709 0 8.357-.332 8.357-.332A2.673 2.673 0 0 0 22 12.709V2.673a2.673 2.673 0 0 0-2.675-2.673zM8.061 11.666V3.721L15.195 7.691l-7.134 3.975z"/>
    </g>

    <rect x="0" y="157" width="200" height="5" fill="#ff2b2b"/>

    <rect x="0" y="162" width="200" height="38" fill="#2D2D2D"/>

    <text x="100" y="188" text-anchor="middle" fill="white" font-family="Verdana, Arial, sans-serif" font-size="22" font-weight="bold" letter-spacing="2">YOUTUBE</text>
  </g>
</svg>
